<svg width="80" height="80" viewBox="0 0 80 80" fill="none" xmlns="http://www.w3.org/2000/svg">
<g id="Background" clip-path="url(#clip0_0_108)">
<rect id="Background_2" opacity="0.2" width="80" height="80" rx="40" fill="#FF7629"/>
<g id="iconspace_Bill Copy_25px">
<path id="path" fill-rule="evenodd" clip-rule="evenodd" d="M31.84 54.2806H32.8822L33.4681 53.1479C33.7489 52.6051 33.88 52.0926 33.88 51.5889C33.88 51.0741 33.743 50.5417 33.4489 49.9708L32.166 47.4806H50.2V26.4006C50.2 25.9254 49.725 25.5968 49.2803 25.7642L44.1127 27.7103L38.877 25.7632C38.7217 25.7055 38.5507 25.7064 38.3961 25.7658L33.295 27.7262L27.9962 25.763C27.5521 25.5984 27.08 25.9269 27.08 26.4006V49.5206C27.08 52.1495 29.2111 54.2806 31.84 54.2806ZM33.2 33.88H38.64C39.0155 33.88 39.32 34.1844 39.32 34.56C39.32 34.9355 39.0155 35.24 38.64 35.24H33.2C32.8244 35.24 32.52 34.9355 32.52 34.56C32.52 34.1844 32.8244 33.88 33.2 33.88ZM33.2 39.32C32.8244 39.32 32.52 39.6244 32.52 40C32.52 40.3755 32.8244 40.68 33.2 40.68H44.08C44.4555 40.68 44.76 40.3755 44.76 40C44.76 39.6244 44.4555 39.32 44.08 39.32H33.2ZM54.988 52.2394C54.988 50.3835 53.501 48.8749 51.6535 48.84H33.88C34.9959 49.9566 35.5918 51.0903 35.594 52.2635C35.5962 53.4364 35.0048 54.5536 33.8934 55.6394H51.588C53.4657 55.6394 54.988 54.1171 54.988 52.2394Z" fill="#FF8700"/>
</g>
</g>
<defs>
<clipPath id="clip0_0_108">
<rect width="80" height="80" fill="white"/>
</clipPath>
</defs>
</svg>
