<svg width="80" height="80" viewBox="0 0 80 80" fill="none" xmlns="http://www.w3.org/2000/svg">
<g id="Background" clip-path="url(#clip0_0_139)">
<rect id="Background_2" opacity="0.2" width="80" height="80" rx="40" fill="#FF7629"/>
<g id="iconspace_Board_25px">
<path id="Path" fill-rule="evenodd" clip-rule="evenodd" d="M51.56 33.2C51.56 30.7873 49.765 28.7939 47.4377 28.4823C47.4656 28.6909 47.48 28.9037 47.48 29.12C47.48 31.7488 45.3489 33.88 42.72 33.88H37.28C34.6511 33.88 32.52 31.7488 32.52 29.12C32.52 28.9037 32.5344 28.6909 32.5623 28.4823C30.235 28.7939 28.44 30.7873 28.44 33.2V49.52C28.44 52.1488 30.5711 54.28 33.2 54.28H46.8C49.4289 54.28 51.56 52.1488 51.56 49.52V33.2ZM45.44 43.4H34.56C34.1844 43.4 33.88 43.0955 33.88 42.72C33.88 42.3444 34.1844 42.04 34.56 42.04H45.44C45.8156 42.04 46.12 42.3444 46.12 42.72C46.12 43.0955 45.8156 43.4 45.44 43.4ZM34.56 37.96H45.44C45.8156 37.96 46.12 37.6555 46.12 37.28C46.12 36.9044 45.8156 36.6 45.44 36.6H34.56C34.1844 36.6 33.88 36.9044 33.88 37.28C33.88 37.6555 34.1844 37.96 34.56 37.96ZM45.44 48.84H34.56C34.1844 48.84 33.88 48.5355 33.88 48.16C33.88 47.7844 34.1844 47.48 34.56 47.48H45.44C45.8156 47.48 46.12 47.7844 46.12 48.16C46.12 48.5355 45.8156 48.84 45.44 48.84Z" fill="#FF8700"/>
<path id="Path_2" d="M37.28 25.72H42.72C44.5978 25.72 46.12 27.2422 46.12 29.12C46.12 30.9977 44.5978 32.52 42.72 32.52H37.28C35.4022 32.52 33.88 30.9977 33.88 29.12C33.88 27.2422 35.4022 25.72 37.28 25.72Z" fill="#FF8700"/>
</g>
</g>
<defs>
<clipPath id="clip0_0_139">
<rect width="80" height="80" fill="white"/>
</clipPath>
</defs>
</svg>
