<svg width="80" height="80" viewBox="0 0 80 80" fill="none" xmlns="http://www.w3.org/2000/svg">
<g id="Background" clip-path="url(#clip0_0_123)">
<rect id="Background_2" opacity="0.2" width="80" height="80" rx="40" fill="#FF7629"/>
<g id="iconspace_Select Tab_25px">
<path id="Path" fill-rule="evenodd" clip-rule="evenodd" d="M54.28 33.88H25.72V27.76C25.72 26.6333 26.6333 25.72 27.76 25.72H52.24C53.3666 25.72 54.28 26.6333 54.28 27.76V33.88ZM32.52 29.8C32.52 30.5511 31.9111 31.16 31.16 31.16C30.4089 31.16 29.8 30.5511 29.8 29.8C29.8 29.0489 30.4089 28.44 31.16 28.44C31.9111 28.44 32.52 29.0489 32.52 29.8ZM35.24 31.16C35.9911 31.16 36.6 30.5511 36.6 29.8C36.6 29.0489 35.9911 28.44 35.24 28.44C34.4889 28.44 33.88 29.0489 33.88 29.8C33.88 30.5511 34.4889 31.16 35.24 31.16Z" fill="#FF8700"/>
<path id="Path_2" fill-rule="evenodd" clip-rule="evenodd" d="M54.28 49.52V35.24H25.72V49.52C25.72 52.1489 27.8511 54.28 30.48 54.28H49.52C52.1488 54.28 54.28 52.1489 54.28 49.52ZM44.5578 40.8762C44.2906 40.6123 43.8601 40.6149 43.5962 40.8821L38.6992 45.84L36.3961 43.5811C36.128 43.3181 35.6975 43.3222 35.4345 43.5903C35.1715 43.8585 35.1757 44.289 35.4438 44.552L38.2306 47.2854C38.4981 47.5478 38.9273 47.5444 39.1906 47.2778L44.5638 41.8378C44.8277 41.5706 44.825 41.1401 44.5578 40.8762Z" fill="#FF8700"/>
</g>
</g>
<defs>
<clipPath id="clip0_0_123">
<rect width="80" height="80" fill="white"/>
</clipPath>
</defs>
</svg>
